<mxfile host="app.diagrams.net" agent="Mozilla/5.0 (Windows NT 10.0; Win64; x64) AppleWebKit/537.36 (KHTML, like Gecko) Chrome/138.0.0.0 Safari/537.36 Edg/138.0.0.0" version="28.0.5">
  <diagram name="Page-1" id="iGXMJxPhkVx4EJQTqwVp">
    <mxGraphModel dx="715" dy="433" grid="1" gridSize="10" guides="1" tooltips="1" connect="1" arrows="1" fold="1" page="1" pageScale="1" pageWidth="850" pageHeight="1100" math="0" shadow="0">
      <root>
        <mxCell id="0" />
        <mxCell id="1" parent="0" />
        <mxCell id="OHZkxiUXc1B9cAO3eHO5-8" style="edgeStyle=orthogonalEdgeStyle;rounded=0;orthogonalLoop=1;jettySize=auto;html=1;entryX=0.5;entryY=0;entryDx=0;entryDy=0;" edge="1" parent="1" source="OHZkxiUXc1B9cAO3eHO5-1" target="OHZkxiUXc1B9cAO3eHO5-4">
          <mxGeometry relative="1" as="geometry">
            <Array as="points">
              <mxPoint x="240" y="230" />
            </Array>
          </mxGeometry>
        </mxCell>
        <mxCell id="OHZkxiUXc1B9cAO3eHO5-1" value="Yahoo Finance API" style="rounded=0;whiteSpace=wrap;html=1;" vertex="1" parent="1">
          <mxGeometry x="180" y="60" width="120" height="60" as="geometry" />
        </mxCell>
        <mxCell id="OHZkxiUXc1B9cAO3eHO5-9" style="edgeStyle=orthogonalEdgeStyle;rounded=0;orthogonalLoop=1;jettySize=auto;html=1;shape=wire;dashed=1;endArrow=none;endFill=0;" edge="1" parent="1" source="OHZkxiUXc1B9cAO3eHO5-2">
          <mxGeometry relative="1" as="geometry">
            <mxPoint x="240" y="170" as="targetPoint" />
          </mxGeometry>
        </mxCell>
        <mxCell id="OHZkxiUXc1B9cAO3eHO5-2" value="Stock_ID.xlsx" style="rounded=0;whiteSpace=wrap;html=1;" vertex="1" parent="1">
          <mxGeometry x="400" y="140" width="120" height="60" as="geometry" />
        </mxCell>
        <mxCell id="OHZkxiUXc1B9cAO3eHO5-11" style="edgeStyle=orthogonalEdgeStyle;rounded=0;orthogonalLoop=1;jettySize=auto;html=1;entryX=0;entryY=0.5;entryDx=0;entryDy=0;" edge="1" parent="1" source="OHZkxiUXc1B9cAO3eHO5-4" target="OHZkxiUXc1B9cAO3eHO5-10">
          <mxGeometry relative="1" as="geometry" />
        </mxCell>
        <mxCell id="OHZkxiUXc1B9cAO3eHO5-4" value="Ingestion Layer" style="ellipse;whiteSpace=wrap;html=1;" vertex="1" parent="1">
          <mxGeometry x="180" y="230" width="120" height="80" as="geometry" />
        </mxCell>
        <mxCell id="OHZkxiUXc1B9cAO3eHO5-14" style="edgeStyle=orthogonalEdgeStyle;rounded=0;orthogonalLoop=1;jettySize=auto;html=1;entryX=0;entryY=0.5;entryDx=0;entryDy=0;" edge="1" parent="1" source="OHZkxiUXc1B9cAO3eHO5-6" target="OHZkxiUXc1B9cAO3eHO5-13">
          <mxGeometry relative="1" as="geometry" />
        </mxCell>
        <mxCell id="OHZkxiUXc1B9cAO3eHO5-6" value="Processing Layer" style="ellipse;whiteSpace=wrap;html=1;strokeColor=default;align=center;verticalAlign=middle;fontFamily=Helvetica;fontSize=12;fontColor=default;fillColor=default;" vertex="1" parent="1">
          <mxGeometry x="180" y="360" width="120" height="80" as="geometry" />
        </mxCell>
        <mxCell id="OHZkxiUXc1B9cAO3eHO5-17" style="edgeStyle=orthogonalEdgeStyle;rounded=0;orthogonalLoop=1;jettySize=auto;html=1;entryX=0;entryY=0.5;entryDx=0;entryDy=0;" edge="1" parent="1" source="OHZkxiUXc1B9cAO3eHO5-7" target="OHZkxiUXc1B9cAO3eHO5-16">
          <mxGeometry relative="1" as="geometry" />
        </mxCell>
        <mxCell id="OHZkxiUXc1B9cAO3eHO5-18" style="edgeStyle=orthogonalEdgeStyle;rounded=0;orthogonalLoop=1;jettySize=auto;html=1;entryX=0.5;entryY=0;entryDx=0;entryDy=0;" edge="1" parent="1" source="OHZkxiUXc1B9cAO3eHO5-7" target="OHZkxiUXc1B9cAO3eHO5-19">
          <mxGeometry relative="1" as="geometry">
            <mxPoint x="240" y="600" as="targetPoint" />
          </mxGeometry>
        </mxCell>
        <mxCell id="OHZkxiUXc1B9cAO3eHO5-7" value="MySQL Upload" style="ellipse;whiteSpace=wrap;html=1;strokeColor=default;align=center;verticalAlign=middle;fontFamily=Helvetica;fontSize=12;fontColor=default;fillColor=default;" vertex="1" parent="1">
          <mxGeometry x="180" y="490" width="120" height="80" as="geometry" />
        </mxCell>
        <mxCell id="OHZkxiUXc1B9cAO3eHO5-12" style="edgeStyle=orthogonalEdgeStyle;rounded=0;orthogonalLoop=1;jettySize=auto;html=1;entryX=0.5;entryY=0;entryDx=0;entryDy=0;" edge="1" parent="1" source="OHZkxiUXc1B9cAO3eHO5-10" target="OHZkxiUXc1B9cAO3eHO5-6">
          <mxGeometry relative="1" as="geometry">
            <Array as="points">
              <mxPoint x="460" y="330" />
              <mxPoint x="240" y="330" />
            </Array>
          </mxGeometry>
        </mxCell>
        <mxCell id="OHZkxiUXc1B9cAO3eHO5-10" value="raw/{ticker}.csv" style="rounded=0;whiteSpace=wrap;html=1;" vertex="1" parent="1">
          <mxGeometry x="400" y="240" width="120" height="60" as="geometry" />
        </mxCell>
        <mxCell id="OHZkxiUXc1B9cAO3eHO5-15" style="edgeStyle=orthogonalEdgeStyle;rounded=0;orthogonalLoop=1;jettySize=auto;html=1;entryX=0.5;entryY=0;entryDx=0;entryDy=0;" edge="1" parent="1" source="OHZkxiUXc1B9cAO3eHO5-13" target="OHZkxiUXc1B9cAO3eHO5-7">
          <mxGeometry relative="1" as="geometry">
            <Array as="points">
              <mxPoint x="460" y="460" />
              <mxPoint x="240" y="460" />
            </Array>
          </mxGeometry>
        </mxCell>
        <mxCell id="OHZkxiUXc1B9cAO3eHO5-13" value="processed/{ticker}.csv" style="rounded=0;whiteSpace=wrap;html=1;" vertex="1" parent="1">
          <mxGeometry x="400" y="370" width="120" height="60" as="geometry" />
        </mxCell>
        <mxCell id="OHZkxiUXc1B9cAO3eHO5-16" value="backup/{ticker}.csv" style="rounded=0;whiteSpace=wrap;html=1;" vertex="1" parent="1">
          <mxGeometry x="400" y="500" width="120" height="60" as="geometry" />
        </mxCell>
        <mxCell id="OHZkxiUXc1B9cAO3eHO5-20" style="edgeStyle=orthogonalEdgeStyle;rounded=0;orthogonalLoop=1;jettySize=auto;html=1;" edge="1" parent="1" source="OHZkxiUXc1B9cAO3eHO5-19">
          <mxGeometry relative="1" as="geometry">
            <mxPoint x="400" y="630" as="targetPoint" />
          </mxGeometry>
        </mxCell>
        <mxCell id="OHZkxiUXc1B9cAO3eHO5-19" value="Mysql DB" style="rounded=0;whiteSpace=wrap;html=1;" vertex="1" parent="1">
          <mxGeometry x="180" y="600" width="120" height="60" as="geometry" />
        </mxCell>
        <mxCell id="OHZkxiUXc1B9cAO3eHO5-21" value="Dashboard/ML" style="ellipse;whiteSpace=wrap;html=1;strokeColor=default;align=center;verticalAlign=middle;fontFamily=Helvetica;fontSize=12;fontColor=default;fillColor=default;" vertex="1" parent="1">
          <mxGeometry x="400" y="590" width="120" height="80" as="geometry" />
        </mxCell>
      </root>
    </mxGraphModel>
  </diagram>
</mxfile>
